<?xml version="1.0" standalone="no"?>
<!DOCTYPE svg PUBLIC "-//W3C//DTD SVG 20010904//EN"
 "http://www.w3.org/TR/2001/REC-SVG-20010904/DTD/svg10.dtd">
<svg version="1.0" xmlns="http://www.w3.org/2000/svg"
 width="512.000000pt" height="512.000000pt" viewBox="0 0 512.000000 512.000000"
 preserveAspectRatio="xMidYMid meet">
<metadata>
Created by potrace 1.14, written by Peter Selinger 2001-2017
</metadata>
<g transform="translate(0.000000,512.000000) scale(0.100000,-0.100000)"
fill="#000000" stroke="none">
<path d="M2375 4150 c-704 -101 -1267 -659 -1374 -1364 -12 -74 -21 -142 -21
-150 0 -13 14 -16 80 -16 44 0 80 1 80 3 0 37 27 196 45 267 41 161 101 299
192 440 207 319 522 544 890 634 54 14 119 27 146 30 26 3 67 9 92 12 l45 5 0
75 0 74 -62 -1 c-35 -1 -85 -5 -113 -9z"/>
<path d="M2720 4083 l0 -80 68 -6 c237 -21 546 -150 748 -314 23 -18 45 -33
50 -33 14 0 104 94 104 108 0 15 -81 80 -188 149 -198 131 -477 229 -699 248
l-83 8 0 -80z"/>
<path d="M2370 3900 c-205 -36 -434 -137 -605 -265 -90 -68 -216 -199 -284
-296 -135 -191 -251 -507 -251 -686 l0 -44 77 3 77 3 18 105 c66 402 311 733
674 914 115 56 221 90 362 112 l112 18 0 78 0 78 -37 -1 c-21 0 -85 -9 -143
-19z"/>
<path d="M2720 3840 c0 -90 -13 -79 115 -101 503 -85 908 -500 993 -1019 l18
-105 77 -3 77 -3 0 47 c0 25 -9 91 -20 146 -88 431 -359 783 -756 981 -90 45
-256 98 -372 118 -63 10 -118 19 -123 19 -5 0 -9 -36 -9 -80z"/>
<path d="M2459 3669 c-449 -67 -807 -372 -942 -804 -29 -93 -51 -235 -39 -247
5 -5 42 -8 83 -6 l73 3 13 74 c54 324 258 592 557 731 94 44 160 64 271 83
l80 13 0 80 c0 90 3 88 -96 73z"/>
<path d="M2720 3592 l0 -81 58 -11 c146 -29 278 -83 392 -160 l62 -42 61 60
60 60 -102 67 c-152 100 -325 166 -472 182 l-59 6 0 -81z"/>
<path d="M3757 3582 c-26 -26 -47 -51 -47 -56 0 -4 20 -31 44 -59 48 -57 141
-198 175 -265 72 -143 132 -338 151 -492 5 -46 10 -86 10 -87 0 -2 36 -3 80
-3 57 0 80 4 80 13 0 6 -9 74 -20 149 -42 285 -163 559 -349 790 -25 31 -53
57 -61 57 -9 1 -37 -21 -63 -47z"/>
<path d="M2445 3335 c-323 -67 -568 -315 -634 -642 -25 -122 -26 -189 -5 -302
54 -287 242 -516 514 -623 140 -55 312 -69 464 -38 165 35 327 126 437 249
104 114 174 259 204 420 20 111 19 173 -6 294 -66 326 -319 581 -637 643 -89
17 -254 17 -337 -1z"/>
<path d="M3407 3242 l-57 -57 53 -70 c90 -120 155 -275 181 -428 l12 -72 74
-3 c40 -2 77 1 82 6 12 12 -9 147 -37 241 -43 144 -156 352 -227 418 l-24 23
-57 -58z"/>
<path d="M0 2535 l0 -655 465 0 c256 0 465 4 465 8 0 5 -12 42 -26 83 -40 116
-73 276 -85 411 -19 216 15 500 85 710 l33 98 -468 0 -469 0 0 -655z"/>
<path d="M4300 3183 c0 -5 11 -43 25 -84 40 -115 73 -273 85 -398 19 -203 -23
-533 -94 -740 -14 -40 -23 -77 -20 -82 3 -5 189 -9 415 -9 l409 0 0 655 0 655
-243 0 c-134 0 -319 3 -410 7 -107 4 -167 3 -167 -4z"/>
<path d="M984 2388 c47 -411 198 -732 475 -1008 64 -63 157 -144 206 -178 209
-148 519 -267 745 -287 36 -3 82 -8 103 -10 l37 -5 0 78 0 78 -99 12 c-612 72
-1113 512 -1266 1112 -18 71 -45 230 -45 267 0 2 -37 3 -81 3 l-82 0 7 -62z"/>
<path d="M1233 2377 c12 -138 53 -284 122 -433 42 -91 141 -254 154 -254 11 0
111 104 111 116 0 5 -19 39 -42 74 -90 139 -156 316 -179 485 l-12 85 -80 0
-80 0 6 -73z"/>
<path d="M1475 2393 c28 -227 141 -469 301 -641 178 -193 487 -347 710 -355
l69 -2 0 80 0 80 -63 7 c-323 36 -628 260 -769 566 -36 78 -83 243 -83 293 l0
29 -86 0 -85 0 6 -57z"/>
<path d="M3590 2421 c0 -50 -47 -216 -83 -294 -20 -42 -59 -111 -88 -152 l-52
-76 57 -57 57 -57 36 40 c111 126 213 372 238 573 l7 52 -86 0 -86 0 0 -29z"/>
<path d="M3831 2365 c-30 -214 -122 -426 -253 -586 -21 -26 -38 -51 -38 -56 0
-11 103 -113 114 -113 13 0 42 38 112 142 130 195 213 421 231 625 l6 73 -80
0 -80 0 -12 -85z"/>
<path d="M4090 2447 c0 -1 -5 -41 -10 -87 -33 -267 -149 -543 -316 -748 -24
-30 -44 -59 -44 -66 0 -14 91 -106 106 -106 29 0 195 241 263 383 77 161 118
299 146 484 23 155 28 143 -65 143 -44 0 -80 -1 -80 -3z"/>
<path d="M3189 1739 c-80 -60 -222 -126 -333 -154 -54 -14 -107 -25 -117 -25
-17 0 -19 -9 -19 -86 l0 -85 48 6 c94 13 238 57 330 100 99 47 215 120 247
155 19 21 18 21 -35 75 -30 30 -57 55 -60 55 -4 0 -31 -18 -61 -41z"/>
<path d="M1674 1628 c-39 -37 -55 -60 -51 -71 16 -41 239 -203 372 -270 135
-67 332 -121 513 -141 l42 -4 0 84 0 84 -36 0 c-20 0 -80 9 -135 20 -233 48
-435 153 -611 318 l-37 35 -57 -55z"/>
<path d="M3374 1573 c-168 -132 -349 -213 -556 -249 l-98 -18 0 -78 0 -78 30
0 c99 0 356 73 485 137 136 68 295 180 295 208 0 6 -24 34 -53 63 l-54 53 -49
-38z"/>
<path d="M3566 1411 c-36 -40 -182 -136 -289 -190 -160 -81 -308 -126 -519
-156 l-38 -6 0 -76 0 -76 88 6 c178 13 421 91 605 194 108 60 287 190 287 207
0 12 -100 116 -111 116 -3 0 -13 -8 -23 -19z"/>
</g>
</svg>
